<svg width="1375" height="1374" viewBox="0 0 1375 1374" fill="#F12E65" xmlns="http://www.w3.org/2000/svg">
<path d="M84.5579 733.197C50.7361 672.747 89.1713 579.29 154.044 521.389C219.391 464.02 311.649 442.738 386.294 368.483C461.413 294.759 518.803 169.119 601.897 119.762C684.874 71.4628 792.491 99.442 868.272 160.606C944.053 221.77 987.998 316.118 971.185 406.496C954.255 497.932 877.157 584.871 887.107 698.112C896.582 810.823 992.516 950.361 976.535 1042.86C961.143 1134.83 833.247 1180.29 715.68 1194.58C597.524 1209.4 489.813 1192 427.386 1130.37C365.076 1067.68 347.575 960.22 286.433 891.715C224.227 823.205 118.854 794.178 84.5579 733.197Z"/>
</svg>
