<svg width="943" height="938" viewBox="0 0 943 938" fill="#0148E8" xmlns="http://www.w3.org/2000/svg">
<path d="M834.724 307.17C775.767 267.395 687.612 266.666 618.629 221.568C550.179 177.078 502.099 87.7484 426.948 47.2615C351.842 6.21171 249.711 13.4419 168.913 59.1758C88.1161 104.91 28.0767 189.102 60.142 268.104C92.1629 347.669 215.756 421.436 247.333 506.631C278.332 591.78 274.152 678.563 281.552 746.554C288.951 814.546 344.172 876.017 394.395 893.231C457.458 914.847 564.231 908.012 610.812 880.994C675.282 843.6 738.116 773.659 785.333 697.518C832.017 620.769 892.363 562.091 907.635 493.624C923.484 425.202 893.725 346.382 834.724 307.17Z"/>
</svg>
