<svg width="968" height="980" viewBox="0 0 968 980" fill="#F12E65" xmlns="http://www.w3.org/2000/svg">
<path d="M850.718 9.26775C918.339 24.287 962.471 115.193 962.471 202.146C961.759 289.1 916.204 372.101 921.898 477.236C926.881 582.37 982.401 708.848 963.894 803.706C944.676 897.774 852.142 959.432 756.049 975.242C659.957 991.052 560.305 961.013 504.073 888.288C447.129 814.773 433.605 699.362 342.495 631.38C252.096 563.399 84.1121 542.055 25.7447 468.54C-32.6227 395.816 18.6267 270.128 86.2475 172.898C153.868 74.8781 238.572 6.10582 326.123 0.572412C414.386 -4.17051 506.208 54.3255 598.03 54.3255C690.564 53.535 782.386 -5.75149 850.718 9.26775Z"/>
</svg>
