<svg width="873" height="878" viewBox="0 0 873 878" fill="#0148E8" xmlns="http://www.w3.org/2000/svg">
<path d="M626.374 788.365C661.385 726.46 655.173 638.521 694.701 566.203C733.665 494.463 818.933 439.501 853.379 361.397C888.39 283.293 873.144 182.047 821.192 105.1C769.241 28.1533 680.584 -25.073 604.351 13.1111C527.553 51.2953 463.743 180.311 381.298 218.495C298.853 256.101 212.01 258.765 144.812 271.493C77.6138 284.221 20.6804 344.109 7.47243 395.531C-9.11248 460.1 6.1052 566.004 36.706 610.314C79.0578 671.64 153.727 728.775 233.349 769.851C313.535 810.35 376.78 865.89 446.237 875.726C515.694 886.14 591.928 850.27 626.374 788.365Z"/>
</svg>
