<svg width="546" height="494" viewBox="0 0 546 494" fill="#7D71F2" xmlns="http://www.w3.org/2000/svg">
<path d="M204.505 461.054C179.867 428.857 179.45 372.408 144.371 330.177C108.876 287.526 39.1367 259.093 12.828 215.607C-13.8982 171.702 3.6409 112.745 43.3127 78.0394C82.5669 43.3339 144.789 32.4623 195.736 21.1726C246.683 9.88291 286.772 -2.2431 325.191 1.102C363.193 4.02898 399.941 22.4271 422.909 50.0242C445.877 77.6213 455.899 113.999 476.779 145.778C498.077 177.138 530.649 203.899 541.507 236.932C552.364 269.965 541.507 309.27 514.781 331.431C488.472 354.01 446.295 359.446 412.469 386.625C378.644 413.804 352.753 462.308 315.169 482.379C278.003 502.449 229.144 493.668 204.505 461.054Z"/>
</svg>
