<svg width="70" height="70" viewBox="0 0 70 70" fill="none" xmlns="http://www.w3.org/2000/svg">
<path d="M66.8181 50.9094L49.3181 33.4094L57.2724 25.4551L60.4543 22.2732L63.6347 19.0929C67.1502 15.5773 67.1494 9.87856 63.6339 6.36456C60.1191 2.85133 54.4219 2.85133 50.9079 6.36533L47.7276 9.54567L44.5457 12.7276L36.5906 20.6819L19.0906 3.18189L15.9087 0L12.7268 3.18189L3.18189 12.7276L0 15.9087L3.18189 19.0906L7.15867 23.0673L8.75 24.6587L13.5224 29.4311L15.1138 31.0217L19.8862 35.7941L20.6819 36.5898L12.7276 44.5457L10.1158 47.5689C9.02222 48.8351 8.18689 50.3036 7.658 51.8902L5.27722 59.0318L2.43056 67.5694L10.9682 64.7236L18.1098 62.3436C19.6972 61.8147 21.1657 60.9793 22.4319 59.885L25.4551 57.2732L33.4094 49.3189L34.2051 50.1146L38.9776 54.887L40.5681 56.4783L45.3406 61.2508L46.9319 62.8421L50.9087 66.8189L54.0913 70L57.2732 66.8181L66.8189 57.2724L70 54.0913L66.8181 50.9094ZM9.54489 60.4551L12.7268 50.9094L19.0906 57.2732L9.54489 60.4551ZM54.0913 63.6362L50.1138 59.6587L56.4776 53.2949L54.8862 51.7036L48.5224 58.0673L43.75 53.2949L46.9319 50.113L45.3406 48.5217L42.1587 51.7036L37.3862 46.9311L40.5681 43.7492L38.9776 42.1587L35.7957 45.3406L31.0232 40.5681L37.387 34.2043L35.7964 32.6138L29.4327 38.9776L24.6602 34.2051L27.8421 31.0232L26.2516 29.4327L23.0697 32.6146L18.2972 27.8421L21.4791 24.6602L19.8878 23.0689L16.7059 26.2508L11.9334 21.4783L18.2972 15.1146L16.7059 13.5232L10.3421 19.887L6.36456 15.9094L15.9102 6.36456L63.637 54.0913L54.0913 63.6362Z" fill="#0148E8"/>
</svg>
