<svg width="70" height="70" viewBox="0 0 70 70" fill="none" xmlns="http://www.w3.org/2000/svg">
<path fill-rule="evenodd" clip-rule="evenodd" d="M0 30.0286C0 13.4696 13.4697 0 30.0286 0C46.3883 0 59.7326 13.1475 60.0513 29.4323C58.6874 27.9009 57.1096 26.5642 55.3647 25.4691C54.8835 22.7664 53.9822 20.2132 52.7288 17.8742H44.462C44.7759 19.2667 45.0349 20.7144 45.2364 22.2075C44.7784 22.1786 44.3166 22.164 43.8513 22.164C42.8558 22.164 41.876 22.231 40.9161 22.3609C40.6869 20.7958 40.391 19.2952 40.0381 17.8742H32.1735V25.5733C29.5248 27.269 27.269 29.5248 25.5733 32.1735H18.6338C18.7738 35.7692 19.2698 39.1641 20.0191 42.183H22.2272C22.1853 42.7336 22.164 43.29 22.164 43.8513C22.164 44.7386 22.2172 45.6134 22.3208 46.4728H21.3596C21.672 47.2909 21.9896 48.0717 22.3427 48.7965C22.6001 49.3249 22.865 49.8232 23.1362 50.2913C24.3194 54.1017 26.5251 57.4619 29.4323 60.0513C13.1475 59.7326 0 46.3884 0 30.0286ZM27.8837 13.5844V4.82602C25.9521 5.73842 23.9937 7.84945 22.3427 11.2384C21.9896 11.9631 21.672 12.7654 21.3596 13.5844H27.8837ZM37.7145 11.2384C36.0635 7.84945 34.1051 5.73842 32.1735 4.82602V13.5844H38.6976C38.3852 12.7654 38.0675 11.9631 37.7145 11.2384ZM18.4998 9.36159C19.0518 8.22856 19.6699 7.16919 20.3319 6.18893C16.3716 7.79519 12.9204 10.3506 10.233 13.5844H16.8017C17.3051 12.0839 17.8638 10.6669 18.4998 9.36159ZM49.8242 13.5844C47.1368 10.3506 43.6856 7.79519 39.7253 6.18893C40.3873 7.16919 41.0054 8.22856 41.5574 9.36159C42.1934 10.6669 42.7521 12.0839 43.2555 13.5844H49.8242ZM15.5952 17.8742H7.32841C5.70741 20.8991 4.67541 24.2821 4.37917 27.8837H14.344C14.4697 24.3468 14.8965 20.9736 15.5952 17.8742ZM27.8837 17.8742H20.0191C19.2681 20.8988 18.775 24.2842 18.6338 27.8837H27.8837V17.8742ZM14.344 32.1735H4.37917C4.674 35.7721 5.7109 39.1596 7.32841 42.183H15.5952C14.895 39.0821 14.4687 35.7168 14.344 32.1735ZM16.8017 46.4728H10.2106C12.9051 49.7229 16.3763 52.2809 20.3542 53.8906C19.6828 52.899 19.0585 51.8201 18.4998 50.6732C17.8643 49.3689 17.3048 47.9701 16.8017 46.4728Z" fill="#0148E8"/>
<path d="M43.8646 61.9637C47.8643 61.9672 51.7484 60.6221 54.8894 58.1458L66.7435 69.9999L69.775 66.9684L57.9208 55.1143C60.4147 51.9317 61.7559 47.9977 61.7254 43.9545C61.6948 39.9114 60.2944 35.998 57.7527 32.8535C55.211 29.709 51.6783 27.5191 47.7314 26.6415C43.7846 25.7639 39.6567 26.2503 36.022 28.0215C32.3873 29.7926 29.4605 32.7438 27.7195 36.393C25.9785 40.0422 25.5261 44.174 26.4364 48.1134C27.3466 52.0529 29.5656 55.5674 32.7311 58.083C35.8965 60.5986 39.8213 61.9666 43.8646 61.9637ZM43.8646 30.5051C46.5513 30.5051 49.1777 31.3019 51.4117 32.7945C53.6456 34.2872 55.3867 36.4088 56.4149 38.891C57.4431 41.3732 57.7121 44.1046 57.1879 46.7397C56.6638 49.3748 55.37 51.7953 53.4702 53.6951C51.5704 55.5949 49.1499 56.8887 46.5148 57.4129C43.8797 57.937 41.1483 57.668 38.6661 56.6398C36.1839 55.6117 34.0623 53.8705 32.5696 51.6366C31.0769 49.4026 30.2802 46.7762 30.2802 44.0895C30.2802 40.4867 31.7114 37.0315 34.259 34.4839C36.8066 31.9364 40.2618 30.5051 43.8646 30.5051Z" fill="#0148E8"/>
<path d="M35.2842 51.2273C35.2842 51.4832 35.386 51.7287 35.5673 51.9097C35.7485 52.0907 35.9944 52.1924 36.2507 52.1924H51.7152C51.9715 52.1924 52.2174 52.0907 52.3986 51.9097C52.5799 51.7287 52.6817 51.4832 52.6817 51.2273C52.679 49.3363 52.0583 47.4978 50.914 45.9911C49.7696 44.4844 48.1641 43.3917 46.3413 42.8791C47.2748 42.3579 48.0088 41.5422 48.4283 40.5598C48.8478 39.5774 48.9291 38.4838 48.6594 37.4504C48.3898 36.4169 47.7843 35.502 46.9381 34.8489C46.0918 34.1958 45.0525 33.8416 43.9829 33.8416C42.9134 33.8416 41.8741 34.1958 41.0278 34.8489C40.1815 35.502 39.5761 36.4169 39.3064 37.4504C39.0368 38.4838 39.118 39.5774 39.5375 40.5598C39.957 41.5422 40.6911 42.3579 41.6246 42.8791C39.8018 43.3917 38.1962 44.4844 37.0519 45.9911C35.9076 47.4978 35.2869 49.3363 35.2842 51.2273Z" fill="#0148E8"/>
</svg>
