<svg width="85" height="70" viewBox="0 0 85 70" fill="none" xmlns="http://www.w3.org/2000/svg">
<path d="M10.6745 0C4.94231 0 0.303155 4.63915 0.303155 10.3713C0.303155 16.0792 4.94231 20.7426 10.6745 20.7426C16.4066 20.7426 21.0457 16.0792 21.0457 10.3713C21.0457 4.63915 16.4066 0 10.6745 0Z" fill="#0148E8"/>
<path d="M0.0139903 70L5.18749 69.7085C5.11463 67.984 3.65731 29.0977 48.3486 21.4954L42.6893 28.5877L46.7456 31.8181L58.0398 17.6334L43.8552 6.31489L40.6248 10.3711L48.0329 16.2733C-1.88053 24.4586 -0.0102984 69.5385 0.0139903 70Z" fill="#0148E8"/>
<path d="M34.2424 52.6334C34.2424 58.3413 38.8815 63.0047 44.6137 63.0047C50.3458 63.0047 54.985 58.3413 54.985 52.6334C54.985 46.9013 50.3458 42.2622 44.6137 42.2622C38.8815 42.2622 34.2424 46.9013 34.2424 52.6334Z" fill="#0148E8"/>
<path d="M81.0655 27.6647L84.7331 23.9971L78.7824 18.0464L84.7331 12.0956L81.0655 8.42801L75.1148 14.3788L69.1641 8.42801L65.4965 12.0956L71.4472 18.0464L65.4965 23.9971L69.1641 27.6647L75.1148 21.714L81.0655 27.6647Z" fill="#0148E8"/>
</svg>
